<svg width="105" height="100" viewBox="0 0 105 100" fill="none" xmlns="http://www.w3.org/2000/svg">
<g filter="url(#filter0_dd_26_831)">
<path d="M48.6 20.6L20.6 48.6C19.8 49.4 19.8 50.6 20.6 51.4L48.6 79.4C49.4 80.2 50.6 80.2 51.4 79.4L79.4 51.4C80.2 50.6 80.2 49.4 79.4 48.6L51.4 20.6C50.6 19.8 49.4 19.8 48.6 20.6ZM51.2 70.9H48.8C47.8 70.9 46.8 70.5 46 69.8L45.3 69.1C44.3 68.1 43.8 66.6 44 65.2L44.3 62.7C44.5 61.5 44.9 60.3 45.6 59.3C46.3 58.3 47.2 57.5 48.3 56.9C48.8 56.6 49.4 56.5 50 56.5C50.6 56.5 51.2 56.6 51.7 56.9C53.9 58.1 55.3 60.2 55.6 62.7L55.9 65.2C56.1 66.6 55.6 68.1 54.6 69.1L54 69.8C53.2 70.5 52.2 70.9 51.2 70.9ZM62.3 52.6C59.8 50.2 57.9 47.2 56.9 43.8L55.5 39C55.2 38 54.3 37.3 53.2 37.3H46.7C45.6 37.3 44.7 38 44.4 39L43 43.8C42 47.1 40.2 50.2 37.6 52.6L33.1 56.9L26.9 50.7C26.5 50.3 26.5 49.7 26.9 49.3L49.3 26.9C49.7 26.5 50.3 26.5 50.7 26.9L73 49.3C73.4 49.7 73.4 50.3 73 50.7L66.8 56.9L62.3 52.6Z" fill="#65B8E2"/>
</g>
<defs>
<filter id="filter0_dd_26_831" x="-5" y="-5" width="110" height="110" filterUnits="userSpaceOnUse" color-interpolation-filters="sRGB">
<feFlood flood-opacity="0" result="BackgroundImageFix"/>
<feColorMatrix in="SourceAlpha" type="matrix" values="0 0 0 0 0 0 0 0 0 0 0 0 0 0 0 0 0 0 127 0" result="hardAlpha"/>
<feOffset/>
<feGaussianBlur stdDeviation="10"/>
<feColorMatrix type="matrix" values="0 0 0 0 0 0 0 0 0 0 0 0 0 0 0 0 0 0 1 0"/>
<feBlend mode="normal" in2="BackgroundImageFix" result="effect1_dropShadow_26_831"/>
<feColorMatrix in="SourceAlpha" type="matrix" values="0 0 0 0 0 0 0 0 0 0 0 0 0 0 0 0 0 0 127 0" result="hardAlpha"/>
<feOffset/>
<feGaussianBlur stdDeviation="12.5"/>
<feColorMatrix type="matrix" values="0 0 0 0 0.330556 0 0 0 0 0.753667 0 0 0 0 0.991667 0 0 0 1 0"/>
<feBlend mode="normal" in2="effect1_dropShadow_26_831" result="effect2_dropShadow_26_831"/>
<feBlend mode="normal" in="SourceGraphic" in2="effect2_dropShadow_26_831" result="shape"/>
</filter>
</defs>
</svg>
