<svg width="60" height="36" viewBox="0 0 60 36" fill="none" xmlns="http://www.w3.org/2000/svg">
<path d="M30.0091 0L25.3965 6.96857H34.5942L30.0091 0" fill="#FCC413"/>
<path d="M20.8115 13.9098L25.3967 6.96857L30.0093 13.9098H20.8115Z" fill="#FCC413"/>
<path d="M30.0098 13.9098H39.235L34.5949 6.96857L30.0098 13.9098Z" fill="#FCC413"/>
<path d="M0 2.15472L2.25206 8.91799L17.9388 11.2755V12.9373L3.84404 14.4832L6.6397 19.9325L18.3271 15.5653L19.0649 16.9953L10.1343 23.7199L13.9783 26.4252L20.5015 19.1982L21.5111 20.1643L18.3271 27.7005L22.1712 28.4735L23.5302 21.5943C24.7395 21.758 26.5156 21.5943 26.4676 19.9325C26.4442 19.1226 26.0648 18.1298 24.661 17.6987C18.6035 15.8385 19.8414 8.29963 21.7441 5.16921C19.4699 6.96857 19.3081 7.87686 18.6766 8.72475C17.6379 8.44939 0 2.15472 0 2.15472Z" fill="#FCC413"/>
<path d="M59.9998 2.15472L57.7477 8.91799L42.061 11.2755V12.9373L56.1558 14.4832L53.3601 19.9325L41.6727 15.5653L40.9349 16.9953L49.8655 23.7199L46.0215 26.4252L39.4983 19.1982L38.4887 20.1643L41.6727 27.7005L37.8286 28.4735L36.4696 21.5943C35.2603 21.758 33.4842 21.5943 33.5322 19.9325C33.5556 19.1226 33.935 18.1298 35.3388 17.6987C41.3963 15.8385 40.1583 8.29963 38.2557 5.16921C40.5299 6.96857 40.6917 7.87686 41.3232 8.72475C42.3619 8.44939 59.9998 2.15472 59.9998 2.15472Z" fill="#FCC413"/>
<path d="M24.5977 32.5894L23.957 34.5025L26.4517 32.145C26.4517 32.145 26.7138 31.6426 26.1702 31.3914C25.5611 31.3914 25.3965 31.3914 25.2681 31.3914C25.0927 31.3581 25.2274 31.0417 25.2274 31.0417C25.2274 31.0417 26.479 29.0333 27.1458 27.9518C27.3191 27.1476 26.0578 26.4252 25.3965 27.1547C24.5977 28.7558 23.5202 31.3914 23.3551 31.3914C23.1901 31.3914 18.6763 31.3914 18.6763 31.3914C18.6763 31.3914 17.7832 31.5508 18.3268 32.2609C18.8704 32.9711 21.9379 35.2174 21.9379 35.2174L20.7682 32.5894H24.5977Z" fill="#FCC413"/>
<path d="M35.4051 32.5894L36.0458 34.5025L33.5511 32.145C33.5511 32.145 33.289 31.6426 33.8326 31.3914C34.4417 31.3914 34.6063 31.3914 34.7347 31.3914C34.9101 31.3581 34.7754 31.0417 34.7754 31.0417C34.7754 31.0417 33.5238 29.0333 32.857 27.9518C32.6837 27.1476 33.945 26.4252 34.6063 27.1547C35.4051 28.7558 36.4826 31.3914 36.6477 31.3914C36.8127 31.3914 41.3265 31.3914 41.3265 31.3914C41.3265 31.3914 42.2196 31.5508 41.676 32.2609C41.1324 32.9711 38.0649 35.2174 38.0649 35.2174L39.2346 32.5894H35.4051Z" fill="#FCC413"/>
<path d="M30.0095 16.055C29.9683 16.8748 28.8692 18.8972 28.5809 19.1982C28.3494 19.4399 28.0319 19.9323 27.3866 21.5941C26.7414 23.2559 27.0081 23.3349 25.6709 24.3079C31.1702 26.8249 28.0322 29.3784 28.0322 29.9653C28.7209 31.6983 30.0095 35.1984 30.0095 35.1984C30.0095 35.1984 31.2964 31.6983 31.9852 29.9653C31.9852 29.3784 28.8471 26.8249 34.3464 24.3079C33.0092 23.3349 33.2759 23.2559 32.6307 21.5941C31.9855 19.9323 31.6679 19.4399 31.4365 19.1982C31.1482 18.8972 30.0507 16.8748 30.0095 16.055V16.055Z" fill="#FCC413"/>
</svg>
